<svg id="Group_23" data-name="Group 23" xmlns="http://www.w3.org/2000/svg" width="100%" height="100%" viewBox="0 0 715.505 812.831">
  <ellipse id="Ellipse_4" data-name="Ellipse 4" cx="6.081" cy="108.181" rx="6.081" ry="108.181" transform="translate(261.651 812.485) rotate(-89.908)" fill="#e6e6e6"/>
  <path id="Path_12" data-name="Path 12" d="M624.437,667.264a276.543,276.543,0,1,1,195.545-81,276.543,276.543,0,0,1-195.545,81Zm0-550.879c-151.27,0-274.336,123.067-274.336,274.336S473.167,665.058,624.437,665.058,898.773,541.991,898.773,390.721,775.706,116.385,624.437,116.385Z" transform="translate(-268.256 -78.31)" fill="#e6e6e6"/>
  <rect id="Rectangle_755" data-name="Rectangle 755" width="20.989" height="72.656" transform="translate(180.832 321.335)" fill="#3f3d56"/>
  <path id="Path_13" data-name="Path 13" d="M215.683,350.44l-51.049-60.732-102.472.937L0,351.191,1.256,352H.808V477.934H215.545V352Z" transform="translate(0 29.884)" fill="#3f3d56"/>
  <path id="Path_14" data-name="Path 14" d="M155.25,289.825,91.475,364.594V477.922H206.109V350.371Z" transform="translate(9.436 29.896)" fill="#e84545"/>
  <rect id="Rectangle_756" data-name="Rectangle 756" width="23.411" height="20.693" transform="translate(146.926 445.146)" fill="#3f3d56"/>
  <rect id="Rectangle_757" data-name="Rectangle 757" width="23.411" height="20.365" transform="translate(146.926 409.329)" fill="#3f3d56"/>
  <rect id="Rectangle_758" data-name="Rectangle 758" width="23.411" height="20.693" transform="translate(146.926 445.146)" fill="#fff"/>
  <rect id="Rectangle_759" data-name="Rectangle 759" width="23.411" height="20.365" transform="translate(146.926 409.329)" fill="#fff"/>
  <rect id="Rectangle_760" data-name="Rectangle 760" width="23.411" height="20.693" transform="translate(42.885 439.656)" fill="#3f3d56"/>
  <rect id="Rectangle_761" data-name="Rectangle 761" width="23.411" height="20.365" transform="translate(42.885 403.839)" fill="#3f3d56"/>
  <rect id="Rectangle_762" data-name="Rectangle 762" width="23.411" height="20.693" transform="translate(42.885 439.656)" fill="#fff"/>
  <rect id="Rectangle_763" data-name="Rectangle 763" width="23.411" height="20.365" transform="translate(42.885 403.839)" fill="#fff"/>
  <rect id="Rectangle_764" data-name="Rectangle 764" width="20.989" height="72.656" transform="translate(513.683 1.744)" fill="#3f3d56"/>
  <path id="Path_15" data-name="Path 15" d="M453.224,62.291V261.032H667.961V62.291h-.449l1.257-.808L606.607.937,504.135,0,453.086,60.732Z" transform="translate(46.736)" fill="#3f3d56"/>
  <path id="Path_16" data-name="Path 16" d="M453.211,60.663V261.02H567.845V74.887L504.07.117Z" transform="translate(46.749 0.012)" fill="#e84545"/>
  <rect id="Rectangle_765" data-name="Rectangle 765" width="23.411" height="20.693" transform="translate(545.168 125.555)" fill="#3f3d56"/>
  <rect id="Rectangle_766" data-name="Rectangle 766" width="23.411" height="20.365" transform="translate(545.168 89.738)" fill="#3f3d56"/>
  <rect id="Rectangle_767" data-name="Rectangle 767" width="23.411" height="20.693" transform="translate(545.168 125.555)" fill="#fff"/>
  <rect id="Rectangle_768" data-name="Rectangle 768" width="23.411" height="20.365" transform="translate(545.168 89.738)" fill="#fff"/>
  <rect id="Rectangle_769" data-name="Rectangle 769" width="23.411" height="20.693" transform="translate(649.209 120.064)" fill="#3f3d56"/>
  <rect id="Rectangle_770" data-name="Rectangle 770" width="23.411" height="20.365" transform="translate(649.209 84.247)" fill="#3f3d56"/>
  <rect id="Rectangle_771" data-name="Rectangle 771" width="23.411" height="20.693" transform="translate(649.209 120.064)" fill="#fff"/>
  <rect id="Rectangle_772" data-name="Rectangle 772" width="23.411" height="20.365" transform="translate(649.209 84.247)" fill="#fff"/>
  <rect id="Rectangle_773" data-name="Rectangle 773" width="23.411" height="20.693" transform="translate(545.168 198.36)" fill="#fff"/>
  <rect id="Rectangle_774" data-name="Rectangle 774" width="23.411" height="20.365" transform="translate(545.168 162.543)" fill="#fff"/>
  <rect id="Rectangle_775" data-name="Rectangle 775" width="23.411" height="20.693" transform="translate(649.209 192.869)" fill="#fff"/>
  <rect id="Rectangle_776" data-name="Rectangle 776" width="23.411" height="20.365" transform="translate(649.209 157.052)" fill="#fff"/>
  <circle id="Ellipse_5" data-name="Ellipse 5" cx="33.743" cy="33.743" r="33.743" transform="translate(335.172 164.8)" fill="#a0616a"/>
  <path id="Path_17" data-name="Path 17" d="M578.7,321.037l57.455-.912c-4.942-13.617-7.084-26.368-3.648-37.391l-43.775-4.56Q597.609,299.605,578.7,321.037Z" transform="translate(-244.444 -61.391)" fill="#a0616a"/>
  <path id="Path_18" data-name="Path 18" d="M535.133,536.037l9.541,25.442a15.407,15.407,0,0,1-12.561,20.7h0a15.407,15.407,0,0,1-17.26-15.886l1.129-29.348,8.208-150.477L557.933,396.5Z" transform="translate(-251.032 -50.22)" fill="#a0616a"/>
  <path id="Path_19" data-name="Path 19" d="M290.119,721.569l27.359-2.736L342.1,479.894l34.656,243.5,25.536-.912,6.384-267.211H286.471Z" transform="translate(29.55 46.962)" fill="#2f2e41"/>
  <path id="Path_20" data-name="Path 20" d="M653.822,252.641s-9.12,20.064-15.5,20.976-17.328,10.944-15.5,15.5.912,18.24-17.328,16.416-17.328-3.648-17.328-3.648-29.183-55.631.912-70.223S645.615,228.017,653.822,252.641Z" transform="translate(-244.78 -66.865)" fill="#2f2e41"/>
  <path id="Path_21" data-name="Path 21" d="M671.444,767.633l-1.1,23.019s16.707,26.057-4.12,26.057h0c-15.062-.048-28.675,6.731-26.894-8.225l2.514-21.12,4.385-23.019Z" transform="translate(-238.207 -11.242)" fill="#2f2e41"/>
  <path id="Path_22" data-name="Path 22" d="M566.175,767.633l1.1,23.019s-16.707,26.057,4.12,26.057h0c15.062-.048,28.675,6.731,26.894-8.225l-2.514-21.12-4.385-23.019Z" transform="translate(-246.278 -11.242)" fill="#2f2e41"/>
  <path id="Path_23" data-name="Path 23" d="M555.01,571.413,690.9,565.029c-25.342-81.324-25.53-147.867,6.384-209.141a32.808,32.808,0,0,0-19.828-30.131L638,308.762,587.842,311.5l-33.1,18.2a39.4,39.4,0,0,0-20.36,36.536C563.36,435.408,565.015,503.616,555.01,571.413Z" transform="translate(-249.021 -58.236)" fill="#e6e6e6"/>
  <path id="Path_24" data-name="Path 24" d="M582.476,411.7l-75.695-12.768,12.471-30.962a81.592,81.592,0,0,1,49.39-46.756l7.45-2.536Z" transform="translate(-251.863 -57.213)" fill="#e6e6e6"/>
  <path id="Path_25" data-name="Path 25" d="M803.108,343.972l23.3-9.709a17.561,17.561,0,0,0,8.1-25.575h0a17.562,17.562,0,0,0-28.182-2.075l-17.29,20.141-67.772,48.633L675.2,356.263l-5.488,38.212,57.558,14.991Z" transform="translate(-235.057 -59.089)" fill="#a0616a"/>
  <path id="Path_26" data-name="Path 26" d="M682.807,407.4l37.507-35.3-9.928-12.135c-8.873-22.031-29.275-31.091-51.759-38.745l-7.45-2.536L645.3,378.717Z" transform="translate(-237.575 -57.213)" fill="#e6e6e6"/>
</svg>
